HIERARCHY
ROOT hip
{
	OFFSET 0.000000 0.000000 0.000000 
	CHANNELS 6 Xposition Yposition Zposition Xrotation Zrotation Yrotation
	JOINT abdomen
	{
		OFFSET 0.000000 3.402643 0.000000 
		CHANNELS 3 Xrotation Zrotation Yrotation
		JOINT chest
		{
			OFFSET 0.000000 8.438565 -0.680529 
			CHANNELS 3 Xrotation Zrotation Yrotation
			JOINT neck
			{
				OFFSET 0.000000 10.207942 -0.272212 
				CHANNELS 3 Xrotation Zrotation Yrotation
				JOINT head
				{
					OFFSET 0.000000 3.130431 0.000000 
					CHANNELS 3 Xrotation Zrotation Yrotation
					End Site
					{
						OFFSET 0.000000 3.130435 0.000000 
					}
				}
			}
			JOINT lCollar
			{
				OFFSET 3.470700 6.669187 -0.816635 
				CHANNELS 3 Yrotation Zrotation Xrotation
				JOINT lShldr
				{
					OFFSET 3.198488 0.000000 0.000000 
					CHANNELS 3 Zrotation Yrotation Xrotation
					JOINT lForeArm
					{
						OFFSET 10.139888 0.000000 0.000000 
						CHANNELS 3 Yrotation Zrotation Xrotation
						JOINT lHand
						{
							OFFSET 8.370511 0.000000 0.000000 
							CHANNELS 3 Zrotation Yrotation Xrotation
							End Site
							{
								OFFSET 4.083176 0.000000 0.000000 
							}
						}
					}
				}
			}
			JOINT rCollar
			{
				OFFSET -3.470700 6.669187 -0.816635 
				CHANNELS 3 Yrotation Zrotation Xrotation
				JOINT rShldr
				{
					OFFSET -3.198488 0.000000 0.000000 
					CHANNELS 3 Zrotation Yrotation Xrotation
					JOINT rForeArm
					{
						OFFSET -10.139888 0.000000 0.000000 
						CHANNELS 3 Yrotation Zrotation Xrotation
						JOINT rHand
						{
							OFFSET -8.370511 0.000000 0.000000 
							CHANNELS 3 Zrotation Yrotation Xrotation
							End Site
							{
								OFFSET -4.083176 0.000000 0.000000 
							}
						}
					}
				}
			}
		}
	}
	JOINT lThigh
	{
		OFFSET 5.308129 -1.633274 1.361059 
		CHANNELS 3 Xrotation Zrotation Yrotation
		JOINT lShin
		{
			OFFSET -2.041588 -20.007561 0.000000 
			CHANNELS 3 Xrotation Zrotation Yrotation
			JOINT lFoot
			{
				OFFSET 0.000000 -19.190928 -1.224953 
				CHANNELS 3 Xrotation Yrotation Zrotation
				End Site
				{
					OFFSET 0.000000 -2.449906 4.627600 
				}
			}
		}
	}
	JOINT rThigh
	{
		OFFSET -5.308129 -1.633274 1.361059 
		CHANNELS 3 Xrotation Zrotation Yrotation
		JOINT rShin
		{
			OFFSET 2.041588 -20.007561 0.000000 
			CHANNELS 3 Xrotation Zrotation Yrotation
			JOINT rFoot
			{
				OFFSET 0.000000 -19.190928 -1.224953 
				CHANNELS 3 Xrotation Yrotation Zrotation
				End Site
				{
					OFFSET 0.000000 -2.449906 4.627600 
				}
			}
		}
	}
}
MOTION
Frames: 13
Frame Time: 0.033333
0.044040 50.062160 0.095131 -3.457031 14.013671 -147.067947 59.246933 -14.894747 -22.065086 -18.173828 4.394531 -2.187500 51.063168 8.107644 2.471410 -100.390625 12.119141 -7.187500 2.000000 -2.000000 0.000000 -39.931641 1.132813 -86.357231 -122.412819 1.420150 -2.875860 -24.746111 24.433239 -63.217224 -2.000000 2.000000 0.000000 71.689453 -19.785158 -77.337288 121.492851 -1.843055 -2.499788 61.931831 -30.004564 -43.833881 -28.445057 38.589134 11.446396 26.371084 -4.668651 -2.594073 -2.461774 -5.068237 -12.891134 -24.865736 -3.826273 -8.916132 12.078659 5.087540 0.866060 5.920246 2.866009 10.743688 
0.101360 50.023548 0.222860 -4.169922 14.023438 -147.233963 59.169922 -14.824847 -21.568481 -18.183594 4.570313 -2.158203 51.063168 8.107644 2.471410 -100.214844 12.246093 -7.265625 2.000000 -2.000000 0.000000 -36.875004 -0.986328 -93.046875 -116.430618 1.383273 -2.668613 -25.185947 25.832232 -63.598392 -2.000000 2.000000 0.000000 67.705078 -18.261719 -80.566406 116.747246 -1.685638 -2.852144 62.431400 -30.158581 -47.582104 -28.553465 38.142113 12.193184 26.182001 -4.668023 -2.598106 -2.305418 -5.430667 -13.398845 -25.920019 -4.148195 -9.036091 12.954206 5.046633 1.110459 5.824739 2.887898 10.562153 
0.165048 49.980522 0.341887 -5.078125 13.828125 -147.429306 59.234241 -14.597337 -20.986179 -18.173828 4.746094 -2.119141 51.063168 8.107644 2.471410 -100.224602 12.363281 -7.214706 2.000000 -2.000000 0.000000 -36.396484 -2.011719 -96.631203 -112.756859 0.900051 -2.904362 -25.329771 26.647003 -63.973232 -2.000000 2.000000 0.000000 65.976563 -17.382813 -82.460938 114.475609 -1.249670 -3.286005 62.750008 -30.283379 -49.728123 -29.071301 37.585583 12.488855 25.819715 -4.701642 -2.555247 -2.443036 -5.518310 -13.216085 -27.012983 -4.714259 -8.539034 13.843994 5.027728 1.328117 5.267995 2.660441 10.429074 
0.223303 49.958801 0.473226 -5.976563 13.789063 -147.819931 59.503357 -14.422887 -20.577238 -18.164063 4.912109 -2.089844 51.063168 8.107644 2.471410 -100.224602 12.363281 -7.038925 2.000000 -2.000000 0.000000 -38.710938 -1.992188 -95.889015 -111.521393 1.007713 -2.734770 -24.928034 27.300617 -64.240822 -2.000000 2.000000 0.000000 66.972656 -17.080076 -81.689453 114.448456 -1.586043 -3.051439 62.515854 -30.456663 -49.601143 -29.625511 37.258987 12.775568 25.480406 -4.707221 -2.548503 -2.286909 -5.701057 -13.337319 -28.278158 -5.126112 -8.112146 14.371423 4.998574 1.076534 5.101587 2.456590 10.566792 
0.284086 49.879604 0.607239 -6.718750 13.789063 -148.025009 59.613091 -14.294987 -20.153961 -18.154297 5.087891 -2.049916 51.063168 8.107644 2.471410 -100.078125 12.490232 -7.136559 2.000000 -2.000000 0.000000 -42.480473 -1.298828 -94.052734 -111.328300 1.207361 -2.834183 -24.516556 27.690321 -64.572365 -2.000000 2.000000 0.000000 68.632813 -16.894531 -80.637604 115.151237 -1.625604 -3.043949 62.065094 -30.295454 -49.074497 -29.980122 36.874348 12.906056 25.097197 -4.716579 -2.343347 -1.956565 -5.466663 -13.401739 -29.505487 -5.652652 -8.125473 15.070073 4.977632 1.443732 4.732900 2.306650 10.240273 
0.351020 49.823689 0.729518 -7.617188 13.740234 -148.249634 59.704082 -14.164756 -19.708885 -18.144531 5.429688 -1.981498 51.063168 8.107644 2.471410 -100.087891 12.607422 -7.089843 2.000000 -2.000000 0.000000 -46.826172 -0.136719 -91.650414 -111.699257 1.090935 -2.817652 -24.759161 28.087507 -65.429893 -2.000000 2.000000 0.000000 70.498047 -16.943357 -79.619141 116.205589 -1.665165 -3.036458 61.772587 -30.612453 -48.133240 -30.493755 36.281254 13.385497 24.785772 -4.736458 -2.312704 -1.810099 -5.675739 -13.094092 -30.757555 -6.043665 -7.653920 15.777923 4.979432 1.501909 4.208462 2.132553 10.343570 
0.421581 49.785217 0.846068 -8.339844 13.740235 -148.591431 59.766144 -13.875731 -19.244411 -18.310547 5.615235 -1.962891 51.063168 8.107644 2.471410 -100.097656 12.724608 -7.080078 2.000000 -2.000000 0.000000 -51.289066 1.201172 -88.652344 -112.389961 1.465926 -2.761425 -24.234718 28.181238 -65.596062 -2.000000 2.000000 0.000000 73.154297 -16.406252 -78.030106 117.804947 -1.524854 -2.588583 61.221901 -30.905933 -46.909966 -30.820389 36.123009 13.863416 24.755039 -4.795046 -2.330907 -1.806814 -5.648949 -13.522602 -31.810530 -6.414303 -7.358621 16.489225 4.939847 1.419559 4.020747 1.909826 10.072466 
0.483264 49.709457 0.936281 -9.062501 13.525391 -148.720703 59.696476 -13.792546 -18.784855 -18.300781 5.781250 -1.933594 51.063168 8.107644 2.471410 -99.921875 12.753906 -7.041016 2.000000 -2.000000 0.000000 -55.488277 2.382812 -86.278885 -112.579681 0.941872 -2.857897 -23.531567 28.241385 -65.531464 -2.000000 2.000000 0.000000 75.332031 -16.884766 -76.611328 118.855385 -1.775640 -2.818250 61.105961 -30.645365 -45.712116 -30.994411 35.582836 14.302606 24.042690 -4.824006 -2.277457 -1.400211 -5.815252 -13.632220 -32.692024 -6.776539 -7.230934 17.019142 4.921107 1.616244 4.011338 1.881766 10.217903 
0.558383 49.694187 1.000678 -9.599608 13.525391 -148.855133 59.801590 -13.577480 -18.489132 -18.310547 5.957031 -1.894531 51.063168 8.107644 2.471410 -99.921875 12.753906 -6.865235 2.000000 -2.000000 0.000000 -59.863281 4.169922 -83.818359 -112.226311 1.110999 -2.809227 -23.879431 28.035305 -66.071739 -2.000000 2.000000 0.000000 78.046875 -17.568359 -75.012718 120.260727 -1.826082 -2.791840 60.954659 -30.607965 -44.534073 -31.362637 35.391937 14.592781 23.858019 -4.746020 -2.247926 -1.438652 -6.061595 -13.585793 -33.594982 -6.970287 -6.788315 17.545103 4.910818 1.502563 3.681271 1.589538 9.867059 
0.633084 49.637817 1.025835 -10.146181 13.476178 -148.971695 59.734806 -13.387321 -18.181732 -18.300781 6.132813 -1.865234 51.063168 8.107644 2.471410 -99.736328 12.773437 -6.824013 2.000000 -2.000000 0.000000 -64.306641 5.732421 -80.937500 -112.043289 1.058026 -2.542131 -23.212414 27.256420 -65.781555 -2.000000 2.000000 0.000000 80.380859 -18.154299 -73.225700 121.472549 -2.066987 -2.854699 60.473560 -30.875980 -43.055618 -31.500874 35.160114 15.125780 23.516613 -4.759942 -2.222466 -1.236887 -6.309963 -13.494987 -34.295345 -7.333554 -6.669291 18.072151 4.891296 1.698915 3.174245 1.596331 10.057504 
0.713796 49.589767 1.020397 -10.498047 13.486329 -149.050446 59.696365 -13.295233 -18.034248 -18.291018 6.298829 -1.650391 51.063168 8.107644 2.471410 -99.560547 12.675780 -6.628717 2.000000 -2.000000 0.000000 -66.367188 6.806641 -78.973457 -112.050797 1.110433 -2.818783 -23.078510 27.292170 -65.167480 -2.000000 2.000000 0.000000 82.431641 -18.681641 -72.073441 122.175087 -2.087615 -2.836339 60.217190 -31.097240 -42.294617 -31.480556 35.168438 15.303946 23.370342 -4.794880 -2.216964 -1.250029 -6.703366 -13.545302 -34.839558 -7.352693 -6.444787 18.587456 4.894185 1.732170 2.993381 1.395173 9.748449 
0.780783 49.615566 0.975648 -10.507813 13.310547 -149.030960 59.486462 -13.157505 -18.012531 -18.457033 6.484375 -1.630859 51.063168 8.107644 2.471410 -99.345703 12.460936 -6.335784 2.000000 -2.000000 0.000000 -67.265625 6.181641 -77.284103 -112.403908 0.932123 -2.857331 -22.315149 27.136744 -63.997669 -2.000000 2.000000 0.000000 84.375000 -19.882813 -70.979889 122.526611 -2.107113 -2.837469 59.696644 -31.382902 -41.319984 -31.450890 35.118717 15.673520 23.169895 -4.799756 -2.200951 -1.239781 -6.952462 -13.452206 -35.022434 -7.361585 -6.259821 18.951187 4.871892 1.612701 2.636535 1.233467 9.624874 
0.851944 49.604534 0.898199 -10.507813 13.310547 -149.030960 59.269382 -13.020409 -17.960049 -18.623047 6.650391 -1.445313 51.063168 8.107644 2.471410 -98.945313 12.158201 -6.042865 2.000000 -2.000000 0.000000 -67.333984 6.201172 -75.800781 -112.929672 1.139681 -2.820674 -22.105200 27.180561 -62.972740 -2.000000 2.000000 0.000000 85.810547 -20.810547 -70.003471 122.709557 -2.054270 -2.736623 59.451073 -31.722233 -40.641308 -31.011934 35.022022 15.991187 23.009575 -4.804776 -2.179260 -1.646365 -7.235037 -13.637400 -35.018608 -7.353729 -6.455451 19.326221 4.862313 1.652323 2.635313 1.060068 9.553738 
